# xmcd CD database file
#
# Track frame offsets:
#	150
#	9239
#	26022
#	38837
#	58071
#	79303
#	99120
#	116097
#	134357
#	160130
#	176113
#	190062
#	206547
#
# Disc length: 3147 seconds
#
# Revision: 5
# Processed by: cddbd v1.5.2PL0 Copyright (c) Steve Scherf et al.
# Submitted via: CDex 2.12
#
DISCID=a60c490d
DTITLE=Israel Kamakawiwo'ole - Alone In IZ World
DYEAR=2010
DGENRE=Pop
TTITLE0=Mona Lisa
TTITLE1=Kaleohano
TTITLE2='Ulili E
TTITLE3=Hanohano Wale No Na Cowboy And Ka Huila Wai
TTITLE4=Hi'ilawe
TTITLE5=Henehene Kou 'Aka
TTITLE6=Ahi Wela - Twinkle Twinkle Little Star
TTITLE7='Opae E
TTITLE8=Starting All Over Again
TTITLE9=Over The Rainbow
TTITLE10=Panini Puakea
TTITLE11=La 'Elima
TTITLE12=In This Life - Health (Hidden Track)
EXTD=YEAR: 2010
EXTT0=
EXTT1=
EXTT2=
EXTT3=
EXTT4=
EXTT5=
EXTT6=
EXTT7=
EXTT8=
EXTT9=
EXTT10=
EXTT11=
EXTT12=
PLAYORDER=
